<?xml version="1.0" encoding="iso-8859-1"?>
<!-- Generator: Adobe Illustrator 19.0.0, SVG Export Plug-In . SVG Version: 6.00 Build 0)  -->
<svg version="1.1" id="Capa_1" xmlns="http://www.w3.org/2000/svg" xmlns:xlink="http://www.w3.org/1999/xlink" x="0px" y="0px"
	 viewBox="0 0 512 512" style="enable-background:new 0 0 512 512;" xml:space="preserve">
<g>
	<g>
		<path d="M333.53,241h-129l-55.801-55.501C146.03,182.5,142.13,181,138.23,181h-123c-5.099,0-9.901,2.699-12.9,7.2
			c-2.701,4.2-2.701,9.901-0.601,14.399L28.429,256l-26.7,53.399c-2.101,4.501-2.101,10.201,0.6,14.401
			c2.999,4.499,7.8,7.2,12.9,7.2h123c3.9,0,7.8-1.5,10.499-4.501L204.53,271h129c-0.3-4.801-0.3-9.901-0.3-15
			C333.23,250.899,333.23,245.799,333.53,241z"/>
	</g>
</g>
<g>
	<g>
		<path d="M378.229,0c-89.355,0-124.336,121.079-131.64,211h59.251c3.942-53.313,18.603-150,72.389-150
			c54.771,0,74.209,105.088,74.209,195.088c0,63.311-11.435,194.912-74.209,194.912c-45.762,0-66.799-73.372-72.501-150h-59.152
			c9.038,108.029,51.059,211,131.653,211c91.758,0,133.55-133.188,133.55-256.015C511.779,138.527,473.149,0,378.229,0z"/>
	</g>
</g>
<g>
	<g>
		<path d="M378.229,91c-23.401,0-42.599,65.7-44.7,150h29.7v-45c0-8.401,6.599-15,15-15s15,6.599,15,15v120c0,8.399-6.599,15-15,15
			s-15-6.601-15-15v-45h-29.7c2.1,84.3,21.299,150,44.7,150c24.901,0,45-73.801,45-165C423.229,164.799,403.13,91,378.229,91z"/>
	</g>
</g>
<g>
</g>
<g>
</g>
<g>
</g>
<g>
</g>
<g>
</g>
<g>
</g>
<g>
</g>
<g>
</g>
<g>
</g>
<g>
</g>
<g>
</g>
<g>
</g>
<g>
</g>
<g>
</g>
<g>
</g>
</svg>
